<svg xmlns="http://www.w3.org/2000/svg" width="229" height="257" viewBox="0 0 229 257" fill="none"><path fill-rule="evenodd" clip-rule="evenodd" d="M157.768 142.391C168.454 136.236 168.454 120.814 157.766 114.66L157.761 114.658L121.527 93.8105L161.399 75.2176L175.714 83.4534L175.736 83.4658L216.392 106.857C233.102 116.471 233.102 140.582 216.392 150.196L175.743 173.582L175.714 173.599L158.778 183.343L118.905 164.75L157.761 142.395L157.768 142.391ZM36 163.605V184.783V184.79C36.0047 197.092 49.3142 204.788 59.979 198.652L82.89 185.471L122.763 204.063L77.9318 229.856L77.9032 229.873L37.4672 253.137C20.8006 262.726 0 250.695 0 231.467L2.04777e-06 184.783L3.7131e-06 146.818L36 163.605ZM125.384 54.497L85.5115 73.0899L59.979 58.4002L59.9644 58.3918C49.3002 52.2704 36 59.9683 36 72.2687V96.1775L5.19808e-06 112.965L6.98319e-06 72.2687L9.03096e-06 25.5851C9.8744e-06 6.35687 20.8006 -5.67336 37.4672 3.9155L77.9166 27.1873L77.9318 27.1961L125.384 54.497Z" fill="black"/></svg>
